<?xml version="1.0" standalone="no"?>
<!DOCTYPE svg PUBLIC "-//W3C//DTD SVG 20010904//EN"
 "http://www.w3.org/TR/2001/REC-SVG-20010904/DTD/svg10.dtd">
<svg version="1.0" xmlns="http://www.w3.org/2000/svg"
 width="972.000000pt" height="520.000000pt" viewBox="0 0 972.000000 520.000000"
 preserveAspectRatio="xMidYMid meet">
<metadata>
Created by potrace 1.15, written by Peter Selinger 2001-2017
</metadata>
<g transform="translate(0.000000,520.000000) scale(0.100000,-0.100000)"
fill="#000000" stroke="none">
<path d="M1010 3700 l0 -1150 3880 0 3880 0 0 848 0 848 -67 81 c-38 44 -153
180 -256 302 l-188 221 -3624 0 -3625 0 0 -1150z m7397 725 l213 -249 0 -728
0 -728 -3730 0 -3730 0 0 980 0 980 3517 -2 3518 -3 212 -250z"/>
<path d="M2143 4235 c-160 -81 -191 -299 -62 -422 45 -42 55 -43 77 -8 l19 30
-43 46 c-63 69 -71 147 -21 219 32 48 69 72 120 77 67 8 113 -4 153 -39 71
-62 69 -47 72 -510 l3 -418 39 0 39 0 3 398 3 397 31 55 c43 75 97 113 171
117 71 5 118 -17 145 -68 17 -31 18 -66 18 -466 l0 -433 45 0 45 0 0 378 c0
423 3 447 65 519 84 98 231 97 288 -2 8 -14 14 -142 17 -412 5 -378 6 -393 26
-420 54 -72 151 -96 222 -53 30 18 32 23 32 75 0 30 -3 55 -6 55 -3 0 -20 -16
-38 -35 -35 -37 -77 -46 -116 -25 -36 19 -40 62 -40 439 0 409 -2 417 -71 475
-49 42 -90 56 -162 56 -78 0 -151 -33 -200 -91 l-33 -38 -39 45 c-49 60 -102
83 -186 84 -99 0 -171 -40 -229 -129 l-15 -22 -32 44 c-48 69 -109 100 -207
105 -72 3 -87 1 -133 -23z"/>
<path d="M4470 4236 c-96 -26 -165 -91 -190 -181 -40 -144 64 -296 216 -313
37 -4 42 -2 47 19 13 47 9 59 -20 59 -40 1 -106 33 -131 65 -12 15 -27 45 -33
66 -23 76 26 166 110 202 32 14 571 23 571 10 0 -5 -15 -24 -34 -42 -19 -18
-49 -65 -67 -104 l-34 -72 -5 -280 c-6 -310 -9 -327 -73 -365 -57 -35 -159
-20 -214 32 l-23 21 0 -55 c0 -54 1 -56 38 -74 47 -23 149 -30 197 -14 21 7
55 28 77 48 69 62 71 73 78 387 5 275 5 281 31 335 51 109 134 172 247 186
l52 7 0 38 0 39 -397 -1 c-281 0 -411 -4 -443 -13z"/>
<path d="M7401 3695 c-67 -77 -54 -144 49 -265 41 -48 47 -88 20 -123 -28 -35
-72 -36 -123 -2 l-37 26 0 -49 c0 -63 15 -75 94 -80 48 -2 68 1 94 17 45 29
72 77 72 129 0 50 -18 89 -70 152 -68 82 -74 108 -34 145 24 23 25 25 9 54
-20 40 -36 39 -74 -4z"/>
<path d="M3885 3708 c-47 -17 -107 -65 -137 -109 -50 -75 -51 -201 -2 -272 38
-54 104 -104 157 -118 50 -13 181 -7 220 11 24 12 27 19 27 63 l0 49 -37 -22
c-46 -27 -145 -38 -196 -21 -47 16 -114 89 -122 135 -21 110 66 216 177 216
36 0 38 -1 38 -33 0 -88 114 -107 143 -24 4 10 0 34 -8 53 -27 66 -167 105
-260 72z"/>
<path d="M6246 3695 c-35 -24 -36 -24 -36 -4 0 18 -5 20 -42 17 l-43 -3 0
-245 0 -245 43 -3 42 -3 0 156 c0 174 7 204 61 249 29 25 39 28 82 23 92 -8
116 -58 117 -243 0 -88 3 -105 23 -135 12 -18 34 -39 47 -46 31 -16 97 -17
139 -2 30 11 31 12 31 72 0 60 -1 61 -18 41 -38 -48 -102 -59 -126 -21 -10 15
-15 62 -18 148 -4 120 -6 130 -34 175 -38 63 -96 94 -175 94 -43 0 -65 -6 -93
-25z"/>
<path d="M6930 3699 c-55 -25 -105 -71 -133 -124 -30 -57 -30 -173 0 -231 29
-54 89 -107 146 -129 58 -22 185 -17 235 9 29 15 32 21 32 61 0 25 -3 45 -6
45 -4 0 -22 -10 -41 -21 -43 -27 -149 -37 -193 -19 -16 7 -30 15 -30 19 0 3
68 73 152 154 l153 149 -39 34 c-87 75 -185 94 -276 53z m158 -74 l37 -16
-123 -122 c-133 -131 -135 -132 -148 -51 -14 94 76 202 169 204 15 0 44 -7 65
-15z"/>
<path d="M5422 3527 l3 -184 30 -49 c38 -62 97 -94 173 -94 59 0 83 9 125 48
l27 26 16 -22 c33 -48 112 -65 183 -41 30 11 31 13 31 71 l0 60 -35 -31 c-41
-35 -83 -40 -108 -13 -15 16 -17 46 -17 216 l0 197 -42 -3 -43 -3 -5 -165 c-3
-103 -10 -173 -17 -186 -44 -76 -136 -98 -194 -46 -40 36 -48 78 -49 260 l0
142 -41 0 -41 0 4 -183z"/>
<path d="M2738 1719 c-128 -20 -191 -131 -139 -244 27 -58 54 -79 164 -122 54
-22 106 -47 117 -56 42 -36 35 -100 -15 -133 -52 -34 -176 -13 -183 31 -9 63
-11 65 -51 65 -35 0 -39 -3 -45 -31 -3 -17 -6 -53 -6 -79 l0 -48 53 -18 c78
-28 217 -25 280 5 80 39 116 107 103 195 -12 81 -62 120 -227 180 -61 22 -91
55 -92 100 -2 56 29 80 97 79 71 -2 96 -16 96 -53 0 -29 2 -30 44 -30 l44 0 7
66 c8 78 6 81 -75 89 -107 11 -125 11 -172 4z"/>
<path d="M3661 1720 c-142 -30 -222 -150 -222 -334 0 -159 41 -245 138 -292
49 -25 70 -29 138 -28 77 0 235 37 235 54 0 10 -21 70 -25 70 -2 0 -32 -7 -66
-16 -84 -22 -188 -16 -226 12 -15 12 -39 43 -53 69 -21 42 -25 61 -24 139 1
112 17 170 55 209 29 28 31 29 120 25 99 -3 103 -6 113 -69 6 -38 8 -39 46
-39 44 0 46 2 53 97 2 32 0 56 -7 61 -46 36 -195 58 -275 42z"/>
<path d="M5028 1720 c-61 -11 -144 -56 -174 -95 -54 -72 -69 -122 -69 -240 0
-103 2 -115 32 -177 22 -48 43 -75 73 -97 109 -79 305 -59 396 41 64 71 78
117 79 253 0 131 -13 175 -69 242 -52 62 -163 92 -268 73z m86 -89 c86 -21
135 -103 136 -228 0 -171 -33 -235 -128 -248 -98 -13 -177 36 -208 128 -33
100 -3 301 50 329 47 25 95 31 150 19z"/>
<path d="M7157 1720 c-105 -19 -199 -101 -227 -198 -45 -157 -4 -343 91 -412
108 -78 305 -57 395 42 65 72 79 117 79 253 0 131 -13 176 -69 242 -52 62
-162 92 -269 73z m87 -89 c86 -21 135 -103 136 -228 0 -164 -33 -233 -118
-248 -103 -17 -186 32 -218 127 -33 101 -3 302 50 330 47 25 95 31 150 19z"/>
<path d="M1070 1685 c0 -27 4 -35 18 -35 10 0 26 -6 36 -13 17 -13 17 -22 2
-218 -23 -277 -21 -266 -56 -274 -26 -6 -30 -11 -30 -41 l0 -34 115 0 115 0 0
35 c0 27 -4 35 -18 35 -10 0 -26 6 -35 13 -16 11 -16 25 -5 197 l13 185 31
-85 c17 -47 55 -152 84 -233 l53 -148 50 3 50 3 78 230 c43 127 78 219 79 205
0 -14 7 -97 15 -185 13 -146 12 -161 -3 -172 -9 -7 -24 -13 -34 -13 -14 0 -18
-8 -18 -35 l0 -35 125 0 125 0 0 34 c0 31 -3 34 -35 40 -29 6 -35 12 -39 39
-9 51 -36 372 -36 416 0 38 2 40 35 47 32 6 35 9 35 40 l0 35 -106 -3 -106 -3
-77 -238 c-43 -131 -80 -239 -82 -242 -3 -2 -40 98 -83 223 -44 125 -83 235
-88 245 -7 14 -24 17 -108 17 l-100 0 0 -35z"/>
<path d="M1900 1685 c0 -30 4 -35 33 -43 l32 -8 5 -215 c4 -184 8 -219 24
-252 59 -119 282 -141 389 -39 58 55 61 70 67 297 l5 209 33 10 c29 8 33 13
30 40 l-3 31 -122 3 -123 3 0 -34 c0 -30 4 -35 33 -43 l32 -10 2 -204 c2 -150
0 -212 -10 -230 -24 -48 -119 -60 -188 -25 -54 29 -60 55 -57 267 l3 192 33 8
c28 8 32 13 32 43 l0 35 -125 0 -125 0 0 -35z"/>
<path d="M3100 1686 c0 -29 4 -34 33 -42 l32 -10 0 -239 0 -239 -32 -10 c-29
-8 -33 -13 -33 -42 l0 -34 125 0 125 0 0 34 c0 29 -4 34 -32 42 l-33 10 0 239
0 239 33 8 c28 8 32 13 32 43 l0 35 -125 0 -125 0 0 -34z"/>
<path d="M4270 1685 c0 -30 3 -35 24 -35 44 0 47 -13 44 -261 l-3 -233 -32
-10 c-29 -8 -33 -13 -33 -42 l0 -34 130 0 130 0 0 34 c0 32 -2 35 -40 41 l-41
7 3 101 3 102 83 3 82 3 0 44 0 45 -85 0 -85 0 0 90 0 90 94 0 c101 0 106 -3
106 -56 0 -21 5 -24 34 -24 33 0 33 1 40 53 3 28 6 67 6 85 l0 32 -230 0 -230
0 0 -35z"/>
<path d="M5460 1688 c0 -29 5 -37 33 -49 l32 -14 3 -215 c1 -118 0 -225 -3
-237 -3 -14 -16 -24 -35 -28 -26 -6 -30 -11 -30 -41 l0 -34 125 0 125 0 0 35
c0 31 -3 35 -35 41 -41 7 -48 30 -43 134 3 58 5 65 25 68 18 3 31 -11 71 -75
27 -43 64 -102 83 -130 40 -64 83 -87 140 -78 30 5 43 13 50 32 15 40 11 62
-9 56 -38 -10 -70 16 -118 94 -26 43 -56 88 -66 99 -19 22 -19 22 23 45 57 32
84 85 84 164 0 74 -18 106 -78 137 -37 19 -61 22 -209 26 l-168 4 0 -34z m299
-73 c42 -21 53 -71 30 -132 -14 -38 -25 -43 -96 -43 l-63 0 0 88 c0 49 3 92 7
95 12 13 94 7 122 -8z"/>
<path d="M6250 1686 c0 -29 4 -34 32 -42 30 -9 43 -28 126 -178 l93 -169 -3
-70 c-3 -71 -3 -71 -35 -81 -29 -8 -33 -13 -33 -42 l0 -34 125 0 125 0 0 34
c0 29 -4 34 -32 42 -32 9 -33 11 -36 72 -3 62 -2 64 88 232 89 166 116 200
152 200 14 0 18 8 18 35 l0 35 -125 0 -125 0 0 -35 c0 -31 3 -36 30 -41 17 -4
30 -13 30 -20 0 -19 -103 -224 -112 -224 -8 0 -118 213 -118 229 0 5 14 12 30
16 26 6 30 11 30 41 l0 34 -130 0 -130 0 0 -34z"/>
<path d="M7560 1685 c0 -30 4 -35 33 -43 l32 -8 5 -215 c5 -232 13 -266 68
-309 87 -69 264 -60 345 18 57 54 61 70 67 297 l5 209 33 10 c29 8 33 13 30
40 l-3 31 -122 3 -123 3 0 -35 c0 -32 4 -36 33 -44 l32 -8 2 -205 c2 -149 0
-211 -10 -229 -24 -48 -119 -60 -188 -25 -54 29 -60 55 -57 267 l3 192 33 8
c28 8 32 13 32 43 l0 35 -125 0 -125 0 0 -35z"/>
</g>
</svg>
